<svg id="Calque_1" data-name="Calque 1" xmlns="http://www.w3.org/2000/svg" viewBox="0 0 380.28 377.63"><title>reverse tape</title><path d="M322.69,193.85c-1.79,16.56-3.64,31.23-4.9,45.94-1,12.24-1.31,24.54-2.07,36.8-.37,6-1.1,11.89-1.58,17.84-1,12.45-10.42,16.66-21,16.28-14.78-.54-29.55-1.37-44.32-1.93-11.8-.45-23.61-.53-35.4-1.06-27-1.23-54-2.63-81-4-11.11-.56-22.22-1.17-33.33-1.77-10.5-.57-16.15-6-15.74-16.53,1.33-33.86,2.93-67.72,4.61-101.57a161.84,161.84,0,0,1,2.42-21.75c1.47-7.85,5.5-10.79,13.58-11.23,16.91-.91,33.87-2.93,50.74-2.38,26.86.87,53.69,3.21,80.49,5.43,19.52,1.62,39,4,58.45,6.14,5.28.58,10.56,1.25,15.79,2.18,4.19.75,7.47,3.05,8.42,7.45C319.67,178.27,321.29,186.87,322.69,193.85ZM299,210c0-7.33.08-14.67,0-22-.09-5.87-2-11.36-7.84-13.29-9.38-3.1-19-6.71-28.68-7.42-20.72-1.52-41.58-1.16-62.36-1.87-12-.41-23.89-1.35-35.82-2.18-14.76-1-29.5-2.37-44.27-3.19-7.35-.41-13.25,5.27-14,12.75-.85,8.43-1.78,16.87-2.23,25.33-1.06,19.76-1.91,39.54-2.74,59.31-.19,4.57,2.41,7.08,6.85,7.65,3.46.45,7,.58,10.39,1.15,27.5,4.57,55.32,4.52,83,5.7,20.95.89,41.92,1.25,62.87,2.09,9.63.39,19.23,1.36,28.84,2.07,2.48.18,4-.35,4.16-3.44.51-15.4,1.26-30.78,1.8-46.18C299.11,221,299,215.45,299,210Zm-92,67.07-.1.89a22.79,22.79,0,0,0,4.15,1c14.72,1.22,29.43,2.71,44.18,3.41,12,.57,20.49,5.49,25.42,16.62,3.28,7.4,7.68,8.78,13.64,6,0-3.68-.84-7,.28-9.52.8-1.78,4.33-3.49,6.44-3.28,5.49.56,3.79,6,5,10,.81-.94,1.59-1.44,1.75-2.09,1.33-5.39,3.61-10.81,3.62-16.22,0-24,1.17-47.81,5.41-71.48a81.77,81.77,0,0,0-1.75-37c-.45-1.57-1.06-3.1-1.59-4.65-2.56,4.87-5,8.62-10,8.64,0,11.76.17,23.2,0,34.63-.36,19.3-1,38.59-1.44,57.88-.18,7.84-2.92,10.11-10.56,8.74-7.34-1.32-14.7-3.26-22.08-3.42-20.79-.54-41.58-.26-62.37-.26ZM153.2,300.13l101.54,3.6c3.37-8.42,5-9.77,10.33-8.55s3.79,5.23,3,8.94h9.59c-4.26-14.37-15-21.1-30.87-15.46,1.46,3.74,2.51,7.93-2.47,9.43-2.1.63-5.59-.46-7.31-2-4.82-4.38,1.28-6.57,3-10.44l-72-3.46c-.54,3.11-.81,5.94-1.56,8.64-1.09,3.94-4.49,3.77-7.36,3-6.32-1.61-3.89-6.44-3.19-10.46-12.21-1.58-25.45,5.6-28.51,15.48l12.9.77c2.13-3.69.83-9.68,6.89-9.39C152.76,290.5,153.07,295.22,153.2,300.13Zm14.72-22.53v-.49a28.85,28.85,0,0,0-4.25-1.09q-29.19-3-58.39-6c-6-.59-8.47-2.62-8.64-8.6-.22-7.81-.31-15.66.14-23.46q1.86-32.09,4.29-64.15c.38-5.09-1.62-7.18-6.8-7.59-1.1,12.49-2.5,24.69-3.2,36.94-1.53,26.54-2.75,53.11-3.95,79.67-.13,2.79.76,5.63,1.18,8.45l1.31.38c2.17-4.64,2.7-12.91,10.22-8.81,8.46,4.6,2,10.06-2.15,15.17a25.82,25.82,0,0,1,4.14,0c12.28,2.63,21.34-2.09,29.35-11.32a25.68,25.68,0,0,1,13.46-7.51c7.59-1.52,15.52-1.18,23.3-1.64Zm-42-124.73-.17,1.93c8,1.06,15.87,2.62,23.86,3.08,27.54,1.57,55.1,2.72,82.65,4.09,12.78.64,25.66.59,38.28,2.39,9.45,1.35,18.55,5.18,28.41,8.08l3.8-7.65C243.2,160.06,185,149.3,125.87,152.87Z" transform="translate(-23.93 -46.06)"/><path d="M58.46,99.82c-5.94,10.48-8.74,20-8.6,30.38a6.93,6.93,0,0,1-2.82,5c-.92.61-4-.32-4.63-1.42-1-1.65-1.12-4.08-1-6.14.36-5.62,1-11.23,1.65-16.82.42-3.49-.67-5.17-4.3-6.32C29,101.39,24,95.37,23.93,87.32c-.09-7.4,2.86-13.22,9.77-16.55a17.5,17.5,0,0,1,19.49,3c7.37,6.7,11,15.63,14.69,24.55,2.76,6.76,5.2,13.65,8,20.4,1.29,3.13,1,5.41-2.21,7-3.89,1.89-5-.94-6.09-3.6C64.66,115.14,61.84,108.12,58.46,99.82Zm-17-20.89c-4.87-.08-8.19,2.76-8.38,7.18-.24,5.47,4.34,10,10.15,10,5.15,0,10.65-3.58,10.76-7,.12-4.4-6.92-10.11-12.54-10.18Z" transform="translate(-23.93 -46.06)"/><path d="M300.08,66.06c-.11,5.38-3.79,10-8.93,13.45a69.61,69.61,0,0,1-10.36,5.86c-3.07,1.39-3.7,3.22-2.75,6.26,1.62,5.23,3.06,10.52,4.48,15.8.77,2.87,1.14,5.82-2.59,6.95s-5-1.45-5.91-4.34c-2-6.66-3.84-13.41-6.23-19.94-.73-2-3.07-3.39-4.67-5.06-1.19,1.73-2.8,3.31-3.47,5.22-1.3,3.75-1.7,7.84-3.22,11.47-.7,1.68-3.16,2.63-4.82,3.91-1-2-3-4.17-2.75-6,1.88-15.27,6.21-29.66,18-40.52,6.2-5.72,13-10.5,22.31-7.9C296,53.1,300.08,58.11,300.08,66.06Zm-34.88,9.1c2.73,1.07,5.18,3,7,2.56a55.77,55.77,0,0,0,14.56-5.48,6.94,6.94,0,0,0,2.66-9.45l-.11-.19c-2.23-3.81-6.12-3.19-9.73-1.76-6.35,2.51-10.12,7.69-14.43,14.32Z" transform="translate(-23.93 -46.06)"/><path d="M192.05,411.06c0,3,.24,6-.06,9-.38,3.82-2.9,4.71-5.89,2.26-4.23-3.46-3-8.53-3.6-13a125.18,125.18,0,0,1-.9-15.82c0-6.27-.44-12.73.86-18.77,1.89-8.79,6.93-12.12,15.89-11.6,11.41.66,20.85,5.33,27.18,15.2,3.33,5.2,3.4,10.58.36,16-2.87,5.17-7.52,6.91-13,6.63a114.86,114.86,0,0,1-13.83-1.64c-6.23-1.09-7.15-.47-7.05,5.69v6Zm.87-21.94c6.64.67,13,1.6,19.37,1.86,5.21.21,7.27-3.08,5.14-7.87-.9-2-2.43-4.32-4.29-5.23-5.36-2.63-11-4.61-16.92-7Z" transform="translate(-23.93 -46.06)"/><path d="M254.65,386.32c2.88-.79,5.67-1.72,8.53-2.31,2.41-.5,5-1.1,7.3-.68,1.16.21,2.63,2.58,2.66,4a5.82,5.82,0,0,1-2.54,4.16c-1.75,1.12-4,1.36-6.09,2.06-10,3.44-11.19,6.55-6,16.47,7-1.44,14.1-3,21.23-4.35,1.77-.35,3.9-1,5.34-.31a7,7,0,0,1,3.65,4.31c.21,1.19-1.64,3.76-3,4q-14.8,3.34-29.76,5.9c-4.35.74-8-3.19-8.72-9-.9-7.58-1.5-15.19-2.23-22.79-.33-3.47-.75-6.93-1-10.4-.47-7.38.5-9,7.36-11.6,9.61-3.64,19.3-7.07,28.92-10.68,3.18-1.19,6.13-2.25,7.75,2.08,1.18,3.14-.73,6.93-4.53,8.1-6.81,2.1-13.73,3.88-20.57,5.88C252.62,374.28,252.55,374.45,254.65,386.32Z" transform="translate(-23.93 -46.06)"/><path d="M134.89,401.9c.15-2.49.11-5,.49-7.46.53-3.44,1.93-6.59-3.5-7.83-10.14-2.31-12-2.19-14.26,3.46-1.75,4.47-3.16,9.07-4.95,13.52-1,2.47-2.24,5.09-5.83,3.65-3.15-1.26-4.49-3.62-3.21-6.76,5.39-13.16,10.6-26.42,16.58-39.31,3.21-6.93,8.07-9,14-8,5.67,1,10.52,6.14,11.61,12.81.85,5.23,2,10.55,1.82,15.78-.24,5.51-2.05,10.94-3,16.43-.64,3.57-.94,7.21-1.55,10.79-.51,3-2.68,4.72-5.31,3.56-1.56-.69-2.64-3.31-3.16-5.27-.44-1.63.24-3.57.43-5.37Zm-4.18-40.11-7.4,14,13.58,1.32c1.92-7.46.43-11.35-6.18-15.33Z" transform="translate(-23.93 -46.06)"/><path d="M378.89,134.76c-3.76-1.66-7-2.57-9.61-4.45-1.51-1.11-1.9-3.76-2.79-5.72,2-.4,4-1.24,5.91-1.07a26.5,26.5,0,0,1,6.66,2c5.85,2.19,10.69.5,13.06-5.39.55-1.36-.88-4.37-2.3-5.52-5.79-4.71-11.94-9-17.91-13.47-1-.78-2.29-1.83-2.55-3-.36-1.57-.47-3.93.43-4.84s3.47-1,4.78-.39c2.34,1.14,4.19,3.24,6.4,4.7,5.66,3.76,11.37,7.45,17.14,11,7.23,4.5,8,8.61,2.48,14.82q-14,15.63-28.1,31.1c-5,5.42-7.08,5.53-12.44.81-7.5-6.6-15-13.08-25-15.86-1.65-.46-2.45-4-3.65-6.05,2.19-.63,4.94-2.43,6.46-1.7,7.69,3.72,15.44,7.55,22.42,12.42,6.45,4.5,6.43,5.06,11.42-.92C374,140.58,376.3,137.84,378.89,134.76Z" transform="translate(-23.93 -46.06)"/><path d="M117.51,80.87c-3.27,1.12-6.25,2.1-9.2,3.18s-5.79,1.43-7-2.21c-1.12-3.49,1.29-5.13,4.16-6.23l10.6-4.05c-.87-3.3-1.55-6.49-2.58-9.57-1.15-3.43-3.71-2.06-5.73-1.15-7.1,3.21-14.05,6.74-21.21,9.8-1.64.7-4.59.81-5.7-.18-2.79-2.52-2.1-5.82,1.16-7.33,10.59-4.87,21.26-9.45,32-13.86,2.95-1.21,5.2.55,6,3.6,3.28,13,6.69,26,9.46,39.11.4,1.87-1.91,5.59-3.86,6.47-10.1,4.59-20.51,8.5-30.78,12.73-2.73,1.12-5,1-6.14-2s.06-5.08,3.09-6.18c6.39-2.31,12.77-4.66,19.15-7C121.4,92.14,121.65,90.77,117.51,80.87Z" transform="translate(-23.93 -46.06)"/><path d="M200.4,66.72c4.38.42,8.8,1,13.24,1.24,3.38.21,5.54,1.61,5.2,5.16s-2.88,3.48-5.6,3a26.21,26.21,0,0,0-4-.21c-11-.13-13,2.44-10.43,14.06H220c3,0,6.36-.14,6.65,4.1.2,3-3.38,4.83-7.55,4.57-6.79-.43-13.61-.52-20.41-.86-9-.45-11.49-3.58-10.15-12.41,1.22-8,2.38-16.09,3.29-24.17.27-2.41-.37-4.93-.68-7.39-.67-5.35,1-7.49,6.41-7.57,9.49-.14,19-.17,28.47-.18,3.41,0,7.08.32,7.51,4.63.35,3.45-4,6.27-8.34,6-5-.32-9.92-.62-14.89-.83C201.24,55.49,199.87,57,200.4,66.72Z" transform="translate(-23.93 -46.06)"/><path d="M327.69,345.33c-2.83.75-5.85,1.1-8.47,2.31-7.45,3.44-8.07,11.06-1.27,15.59,5,3.3,10.35,6,15.27,9.32a28.44,28.44,0,0,1,7.47,7.11c6.63,9.73,2.68,19.6-8.62,22.79-8,2.25-15.76,1.27-23.52-.86-2.86-.78-4-2.71-3.58-5.66.43-3.47,2.88-3.21,5.22-2.87,3.28.47,6.5,1.52,9.78,1.69,2.87.15,6.1.14,8.61-1,6.57-3,7.09-7.53,1.42-12.15-3.57-2.91-7.77-5.06-11.7-7.52-1-.61-2.07-1.06-3.06-1.67C305.81,366.6,302,358,305.19,350c3.69-9.23,15.63-15.76,25.23-13.7,3.15.67,5.87,2.24,5.31,6C335,347.08,331.07,345.94,327.69,345.33Z" transform="translate(-23.93 -46.06)"/><path d="M333.74,69c5.9-.15,11.53,1,15.15,5.94,1.32,1.81,1.88,5.67.82,7.38-1.94,3.13-4.57.82-6.61-1-4.33-3.89-9.24-5-14.75-3-5,1.8-6.68,5.27-4.56,10.22,1.64,3.81,3.67,7.45,5.55,11.16A35.92,35.92,0,0,1,333,119.52c-.63,7.13-7.46,12.57-14.34,11a39.43,39.43,0,0,1-22.55-13.75c-1.29-1.58-1.88-5.4-.87-6.82,2.13-3,4.85-1,7.13.94,3.39,2.92,6.58,6.37,10.5,8.26a12.83,12.83,0,0,0,9.7.14c1.42-.63,1.73-5.32,1.36-8-.39-2.85-2.19-5.51-3.35-8.25-1.81-4.27-4-8.43-5.32-12.86C311.92,78.76,318.74,69.6,330.74,69Z" transform="translate(-23.93 -46.06)"/><path d="M160.61,78.36c2.11-4.52,3.77-8,5.39-11.59,2.55-5.57,5-11.2,7.64-16.71,1.19-2.44,2.87-4.68,6.22-3.1s2.59,4.38,1.53,6.8q-7.72,17.53-15.75,34.9c-2.89,6.17-6.38,6.35-10,.67-3.44-5.47-6.66-11.07-10-16.62-3.92-6.59-8-12.94-14.92-17-1.85-1.09-5-2.88-2.53-5.82,2-2.33,4.51-3.43,7.82-1.13,8.84,6.17,14.45,15,20.11,23.74C157.31,74.24,158.68,75.82,160.61,78.36Z" transform="translate(-23.93 -46.06)"/><path d="M68.45,349.17c-4.52-.89-8.28-1.43-11.93-2.42-2.73-.74-5.82-2.1-4.87-5.65.89-3.31,3.78-4.34,7.17-3.57,11.14,2.56,22.3,5.06,33.43,7.67,3,.7,6.11,1.77,5.16,5.81s-3.9,4.23-7.4,3.11c-3.75-1.2-7.61-2.09-11.89-3.24-4.17,11.39-8.24,22.55-12.34,33.7-.68,1.86-1,4.09-2.32,5.41s-3.77,2.57-5.18,2.12-2.67-2.89-3.2-4.7c-.35-1.2.6-2.84,1.12-4.22,3.51-9.48,7.07-18.94,10.57-28.42C67.38,353.11,67.8,351.36,68.45,349.17Z" transform="translate(-23.93 -46.06)"/><path d="M254.68,266.93c-27.51-1.26-53.56-2.6-79.61-3.59-12.45-.47-24.92-.29-37.38-.41-2,0-4,.08-6,0-11.31-.66-17.16-6.7-17.77-18-.52-9.8.78-19.2,5.4-28,1.9-3.63,4.07-4.64,8.67-4.21,18,1.67,36.1,2.51,54.18,3.39,23.75,1.15,47.52,1.86,71.26,3.18,5.37.3,10.73,2.05,15.93,3.67,7.59,2.36,10.91,7.28,10,15.09a108.81,108.81,0,0,1-3.65,19c-2.4,7.81-9.85,8.55-16.51,9.86A17.9,17.9,0,0,1,254.68,266.93ZM231,223.12c.08,3.17.55,6.23.15,9.17-.84,6.22-2.62,12.34-3.07,18.56-.31,4.29-1.73,5.39-5.75,5.15-18.75-1.1-37.5-2-56.26-2.94-12.19-.59-12.19-.53-13.4-11.78-8.87,13.17-14.87,16.21-22.33,11.31-9.23-6.06-11.17-15.87-4.52-25.44a12.63,12.63,0,0,1,7.17-4.76c8.33-1.68,13.75,4,19.25,9.41,1.49-7.79,1.49-7.8,9.34-7.72l44.94.48c1.71,0,3.41-.16,5.12-.24-.52-1.1-1.06-1.32-1.61-1.36-12.43-.87-24.86-1.8-37.29-2.57-14.6-.9-29.21-1.61-43.81-2.48-4.45-.27-7.12,1.9-7.78,6A155.66,155.66,0,0,0,119,242.69c-.42,10.89,4,15.1,14.77,15.27,19.13.29,38.27.39,57.39,1.09,15.27.56,30.5,2,45.76,2.82,8.1.41,16.23.38,24.33.11,4.58-.15,8.67-2.29,9.76-7.1a108,108,0,0,0,3-19.53c.26-6.84-9.65-12.12-16-8.59,5.77,1.38,9.47,4.94,9.62,10.38a59.67,59.67,0,0,1-2.1,16.1c-.55,2.16-3.09,4.63-5.27,5.42C252.52,261.48,242,256,238,247.58c-3.61-7.62-1.67-13,6.81-18.71,1.79-1.2,3.71-2.22,5.53-3.38.84-.54,1.58-1.22,3-2.37Zm-3.29,6c-22.94,0-45,0-67.14.12-.88,0-2.47,1.7-2.52,2.66-.25,5.25-.12,10.51-.12,16.13,9.89.52,20,1.07,30.07,1.57s19.91,1.07,29.88,1.28c1.76,0,4.75-1.15,5.14-2.41,1.9-6.16,3.1-12.47,4.7-19.4ZM139.85,231c-10.88,6.31-10.94,6.92-1.54,14.65a4.11,4.11,0,0,0,1.28.47c6-8.76,6-10.09.27-15.17ZM258.91,248.4c.75-3.42,1.55-6.41,2-9.45a5,5,0,0,0-1.29-2.69c-3.87,1.45-7.67,3.08-11.49,4.68.73,1.32,1.13,3.18,2.25,3.84,2.49,1.41,5.34,2.22,8.54,3.57Z" transform="translate(-23.93 -46.06)"/><path d="M118,187.72v-10.5c-.05-6.19.74-6.9,6.81-6.6,17.12.84,34.23,1.86,51.36,2.34,30.95.88,61.91,1.4,92.86,2.13,2.31.05,5,0,6.82,1,2.14,1.24,5,3.61,5.08,5.64a242.92,242.92,0,0,1-.15,24.43c-.17,4-3,4.92-6.71,4.72-25.91-1.36-51.82-2.85-77.74-3.81-24.61-.91-49.23-1.23-73.85-1.76-2.89-.06-4.36-1.25-4.36-4.16v-13.5Zm5.78,12.18c20.7.9,41.09,1.86,61.5,2.64,27.58,1.06,55.18,2,82.76,3,5.45.2,7.65-1.59,8-7.11.23-3.65.12-7.32.38-11,.4-5.49-.62-6.82-6.29-7-17.13-.51-34.27-.86-51.39-1.43-16.62-.55-33.24-1.26-49.86-2-11.3-.48-22.59-1.1-33.89-1.59a44.44,44.44,0,0,0-5,.32l-.26,1.61c1.36.55,2.69,1.48,4.09,1.6,15.89,1.4,31.77,3.06,47.7,3.89,26.07,1.36,52.17,2.12,78.26,3.26,2,.09,4,1.11,5.93,1.69l-.35,2.27c-23.58.39-47.1-2.07-70.63-3.23s-47.24-2.75-70.94-4.16Z" transform="translate(-23.93 -46.06)"/><path d="M262.26,199.48c-2.89,1-4.24,1.85-5.57,1.82q-12.69-.21-25.36-.77c-7.48-.34-14.95-.93-22.42-1.39Q175,197,141.16,194.91a83.49,83.49,0,0,1-9.91-1.06c-1.59-.29-3-1.45-4.52-2.21l.19-2a77.42,77.42,0,0,1,9.19-.46q51.78,3.37,103.55,6.91c5.48.37,11,.52,16.44,1C257.71,197.25,259.25,198.28,262.26,199.48Z" transform="translate(-23.93 -46.06)"/></svg>